<svg width="24" height="26" viewBox="0 0 24 26" fill="none" xmlns="http://www.w3.org/2000/svg">
<g id="Calendar">
<path id="Calendar_2" fill-rule="evenodd" clip-rule="evenodd" d="M17.6804 1.46077L17.6816 2.3978C21.1249 2.66767 23.3995 5.01399 23.4032 8.61219L23.4167 19.1444C23.4217 23.0674 20.9571 25.4812 17.0065 25.4875L7.35661 25.5C3.43075 25.505 0.935275 23.0337 0.930339 19.0994L0.916763 8.6909C0.911826 5.06897 3.10616 2.72889 6.54947 2.4128L6.54823 1.47577C6.547 0.926042 6.95427 0.512499 7.4973 0.512499C8.04033 0.511249 8.44761 0.923543 8.44884 1.47327L8.45008 2.34783L15.781 2.33783L15.7798 1.46327C15.7785 0.913548 16.1858 0.501254 16.7288 0.500005C17.2595 0.498756 17.6791 0.911049 17.6804 1.46077ZM2.81861 9.07696L21.5038 9.05197V8.61469C21.4507 5.92854 20.103 4.51924 17.6841 4.30935L17.6853 5.27137C17.6853 5.8086 17.2669 6.23463 16.7362 6.23463C16.1932 6.23588 15.7847 5.8111 15.7847 5.27386L15.7835 4.26187L8.45254 4.27187L8.45378 5.28261C8.45378 5.82109 8.04774 6.24588 7.50471 6.24588C6.96168 6.24713 6.55317 5.82359 6.55317 5.28511L6.55194 4.32309C4.14533 4.56422 2.81367 5.97851 2.81737 8.6884L2.81861 9.07696ZM16.2166 14.7554V14.7691C16.229 15.3438 16.698 15.7799 17.2669 15.7674C17.8223 15.7536 18.2654 15.2776 18.253 14.7029C18.2271 14.1532 17.7816 13.7046 17.2274 13.7059C16.6597 13.7184 16.2154 14.1807 16.2166 14.7554ZM17.2361 20.3651C16.6683 20.3526 16.2105 19.8791 16.2092 19.3043C16.1969 18.7296 16.6523 18.2536 17.22 18.2399H17.2324C17.8124 18.2399 18.2826 18.7134 18.2826 19.3006C18.2839 19.8878 17.8149 20.3638 17.2361 20.3651ZM11.1319 14.7754C11.1566 15.3501 11.6268 15.7986 12.1945 15.7736C12.7499 15.7474 13.193 15.2726 13.1683 14.6979C13.1547 14.1357 12.6981 13.6984 12.1427 13.6996C11.575 13.7246 11.1307 14.2006 11.1319 14.7754ZM12.1995 20.3088C11.6317 20.3338 11.1628 19.8853 11.1368 19.3106C11.1368 18.7359 11.5799 18.2611 12.1476 18.2349C12.703 18.2336 13.1609 18.6709 13.1732 19.2319C13.1991 19.8078 12.7548 20.2826 12.1995 20.3088ZM6.04717 14.8191C6.07185 15.3938 6.54207 15.8436 7.10978 15.8173C7.66515 15.7923 8.10821 15.3163 8.0823 14.7416C8.06996 14.1794 7.61332 13.7421 7.05671 13.7434C6.489 13.7684 6.04593 14.2444 6.04717 14.8191ZM7.11472 20.3151C6.547 20.3413 6.07802 19.8915 6.0521 19.3168C6.05087 18.7421 6.49517 18.2661 7.06288 18.2411C7.61825 18.2399 8.07613 18.6772 8.08847 19.2394C8.11438 19.8141 7.67132 20.2901 7.11472 20.3151Z" fill="white"/>
</g>
</svg>
