<svg width="22" height="26" viewBox="0 0 22 26" fill="none" xmlns="http://www.w3.org/2000/svg">
<g id="Location">
<path id="Location_2" fill-rule="evenodd" clip-rule="evenodd" d="M0.708374 10.8972C0.708374 5.14736 5.51323 0.5 11.3252 0.5C17.1535 0.5 21.9584 5.14736 21.9584 10.8972C21.9584 13.7946 20.9046 16.4845 19.1702 18.7645C17.2569 21.2794 14.8986 23.4706 12.2441 25.1905C11.6365 25.588 11.0882 25.618 10.4214 25.1905C7.75179 23.4706 5.39348 21.2794 3.4965 18.7645C1.76085 16.4845 0.708374 13.7946 0.708374 10.8972ZM7.82616 11.2209C7.82616 13.1471 9.39795 14.6621 11.3252 14.6621C13.2537 14.6621 14.8406 13.1471 14.8406 11.2209C14.8406 9.30974 13.2537 7.72104 11.3252 7.72104C9.39795 7.72104 7.82616 9.30974 7.82616 11.2209Z" fill="white"/>
</g>
</svg>
