<svg width="25" height="24" viewBox="0 0 25 24" fill="none" xmlns="http://www.w3.org/2000/svg">
<g id="Message">
<path id="Message_2" fill-rule="evenodd" clip-rule="evenodd" d="M18.6742 0.75C20.3505 0.75 21.963 1.4125 23.1492 2.60125C24.3367 3.7875 25.0005 5.3875 25.0005 7.0625V16.9375C25.0005 20.425 22.163 23.25 18.6742 23.25H6.32549C2.83674 23.25 0.000488281 20.425 0.000488281 16.9375V7.0625C0.000488281 3.575 2.82424 0.75 6.32549 0.75H18.6742ZM20.663 8.925L20.763 8.825C21.0617 8.4625 21.0617 7.9375 20.7492 7.575C20.5755 7.38875 20.3367 7.275 20.088 7.25C19.8255 7.23625 19.5755 7.325 19.3867 7.5L13.7505 12C13.0255 12.6013 11.9867 12.6013 11.2505 12L5.62549 7.5C5.23674 7.2125 4.69924 7.25 4.37549 7.5875C4.03799 7.925 4.00049 8.4625 4.28674 8.8375L4.45049 9L10.138 13.4375C10.838 13.9875 11.6867 14.2875 12.5755 14.2875C13.4617 14.2875 14.3255 13.9875 15.0242 13.4375L20.663 8.925Z" fill="white"/>
</g>
</svg>
